<?xml version="1.0" encoding="UTF-8" standalone="no"?>
<!-- Created with Inkscape (http://www.inkscape.org/) -->

<svg
   xmlns:dc="http://purl.org/dc/elements/1.1/"
   xmlns:cc="http://creativecommons.org/ns#"
   xmlns:rdf="http://www.w3.org/1999/02/22-rdf-syntax-ns#"
   xmlns:svg="http://www.w3.org/2000/svg"
   xmlns="http://www.w3.org/2000/svg"
   xmlns:xlink="http://www.w3.org/1999/xlink"
   version="1.1"
   width="225"
   height="200"
   id="svg3986">
  <defs
     id="defs3988">
    <linearGradient
       x1="109.5"
       y1="452.36218"
       x2="300.5"
       y2="452.36218"
       id="linearGradient3942"
       xlink:href="#linearGradient3858"
       gradientUnits="userSpaceOnUse"
       gradientTransform="translate(187.5,80.000003)" />
    <linearGradient
       id="linearGradient3858">
      <stop
         id="stop3860"
         style="stop-color:#808080;stop-opacity:1"
         offset="0" />
      <stop
         id="stop3862"
         style="stop-color:#808080;stop-opacity:0.95041323"
         offset="1" />
    </linearGradient>
  </defs>
  <metadata
     id="metadata3991">
    <rdf:RDF>
      <cc:Work
         rdf:about="">
        <dc:format>image/svg+xml</dc:format>
        <dc:type
           rdf:resource="http://purl.org/dc/dcmitype/StillImage" />
        <dc:title></dc:title>
      </cc:Work>
    </rdf:RDF>
  </metadata>
  <g
     transform="translate(-262.5,-432.36218)"
     id="layer1">
    <path
       d="m 262.5,607.36218 100,-175 25,0 100,185 -10,15 -215,0 0,-25"
       id="path3924"
       style="fill:none;stroke:none" />
    <path
       d="m 477.5,632.36218 -90,-165 -70.0553,125.57063 -19.9447,0.0294 90,-160.6 100,185 z"
       id="path3926"
       style="fill:url(#linearGradient3942);fill-opacity:1;stroke:none" />
    <path
       d="m 262.5,607.36218 178.45249,0.0852 -7.65249,-14.6852 -135.8,0.2 90.16151,-160.3012 -25.24942,-0.14495 z"
       id="path3928"
       style="fill:#b3b3b3;stroke:none" />
    <path
       d="m 317.5,592.36218 115,0"
       id="path3930"
       style="fill:none;stroke:none" />
    <path
       d="m 317.5,592.36218 115,0 -55,-105 z"
       id="path3932"
       style="fill:none;stroke:none" />
    <path
       d="m 387.5,467.36218 90,165 -215,0 0,-25 178.45249,0.0852 -63.68874,-121.73305 z"
       id="path3934"
       style="fill:#999999;stroke:none" />
    <path
       d="m 387.5,467.36218 0.4214,0.76216 -8.24073,22.21131 -2.41692,-4.62132 z"
       id="path3936"
       style="fill:#000000;fill-opacity:0.07657656;stroke:none" />
    <path
       d="m 433.26946,592.76222 7.68303,14.68516 0,0 -13.16023,-14.67709 z"
       id="path3938"
       style="fill:#000000;fill-opacity:0.07657656;stroke:none" />
    <path
       d="m 297.50461,592.95399 21.78165,-3.32209 -1.84156,3.30091 -19.94009,0.0212 z"
       id="path3940"
       style="fill:#000000;fill-opacity:0.07843137;stroke:none" />
  </g>
</svg>
